<svg width="79" height="15" viewBox="0 0 79 15" fill="none" xmlns="http://www.w3.org/2000/svg">
<path d="M35.8082 9.12651C44.1376 9.12651 69.1259 9.12651 60.7965 9.12651C45.2265 9.12651 29.6566 9.12651 14.0867 9.12651C9.68632 9.12651 -3.5147 9.12651 0.885636 9.12651C16.6504 9.12651 32.4502 7.48316 48.1877 6.64296C57.5513 6.14306 66.914 6.1747 76.2709 5.70686C76.4227 5.69927 78.2605 5.68775 77.7419 5.68775C73.5326 5.68775 69.3233 5.68775 65.114 5.68775C58.8891 5.68775 52.4722 5.73636 46.3537 7.06326C45.4721 7.25444 43.8974 7.73199 45.8188 7.75101C49.8807 7.79123 53.9451 7.75101 58.0073 7.75101C62.9107 7.75101 67.8141 7.75101 72.7175 7.75101C78.9264 7.75101 60.2998 7.75101 54.0909 7.75101C47.1561 7.75101 40.2212 7.75101 33.2864 7.75101C27.6316 7.75101 44.5961 7.75101 50.251 7.75101C52.1677 7.75101 54.0845 7.75101 56.0013 7.75101C56.324 7.75101 58.0026 7.81019 56.5936 7.7319C51.5236 7.45024 46.4863 7.06326 41.4057 7.06326C36.8481 7.06326 43.321 6.72523 44.5961 6.64296C46.9638 6.49021 49.2891 6.07353 51.6265 5.68775C52.6909 5.51207 54.6354 5.56495 52.6581 5" stroke="white" stroke-linecap="round"/>
</svg>
