<svg width="103" height="32" viewBox="0 0 103 32" fill="none" xmlns="http://www.w3.org/2000/svg">
<path fill-rule="evenodd" clip-rule="evenodd" d="M53.9505 17.5502V25.2002H50.3505V17.5502H53.9505Z" fill="#EEEAE4"/>
<path fill-rule="evenodd" clip-rule="evenodd" d="M53.9505 10.8003V14.8503H50.3505V10.8003H53.9505Z" fill="#EEEAE4"/>
<path fill-rule="evenodd" clip-rule="evenodd" d="M74.2003 17.5502V25.2002H70.6003V17.5502H74.2003Z" fill="#EEEAE4"/>
<path fill-rule="evenodd" clip-rule="evenodd" d="M74.2003 10.8003V14.8503H70.6003V10.8003H74.2003Z" fill="#EEEAE4"/>
<path fill-rule="evenodd" clip-rule="evenodd" d="M56.1998 6.30029H67.2248V25.2003H56.1998V6.30029ZM59.7998 9.90029V21.6003H63.6248V9.90029H59.7998Z" fill="#EEEAE4"/>
<path fill-rule="evenodd" clip-rule="evenodd" d="M103 4.50049V23.4005H99.4003V4.50049H103Z" fill="#EEEAE4"/>
<path fill-rule="evenodd" clip-rule="evenodd" d="M76.9001 19.8003L76.9001 10.8003L90.4001 10.8003L90.4001 19.8003L76.9001 19.8003ZM80.5001 16.2003L86.8001 16.2003L86.8001 14.4003L80.5001 14.4003L80.5001 16.2003Z" fill="#EEEAE4"/>
<path fill-rule="evenodd" clip-rule="evenodd" d="M103 25.2007L93.0998 25.2007L93.0998 10.8007L103 10.8007L103 25.2007ZM99.3998 21.6007L99.3998 14.4007L96.6998 14.4007L96.6998 21.6007L99.3998 21.6007Z" fill="#EEEAE4"/>
<path fill-rule="evenodd" clip-rule="evenodd" d="M80.5001 21.6001L80.5001 17.1001L76.9001 17.1001L76.9001 25.2001L90.4001 25.2001L90.4001 21.6001L80.5001 21.6001Z" fill="#EEEAE4"/>
<path fill-rule="evenodd" clip-rule="evenodd" d="M4 0C1.79086 0 0 1.79086 0 4V7.35419L2.1275 9.48169L4.99119 6.61801L7.52759 9.15442L10.0643 6.61775L12.9282 9.48164L15.7918 6.61796L18.3374 9.16355L15.4737 12.0272L18.3374 14.8909L15.7918 17.4365L12.9282 14.5728L10.0643 17.4367L7.52765 14.9001L4.99119 17.4365L2.1275 14.5729L0 16.7004V21.4772H10.7998V25.0772H0V27.5C0 29.7091 1.79086 31.5 4 31.5H26.6C28.8091 31.5 30.6 29.7091 30.6 27.5V4C30.6 1.79086 28.8091 0 26.6 0H4ZM7.52786 9.17251L10.3826 12.0272L7.5278 14.882L4.67309 12.0273L7.52786 9.17251Z" fill="#FF5C59"/>
</svg>
